<mxfile host="app.diagrams.net" modified="2021-08-08T06:45:59.802Z" agent="5.0 (Macintosh; Intel Mac OS X 10_15_7) AppleWebKit/537.36 (KHTML, like Gecko) Chrome/92.0.4515.131 Safari/537.36" etag="PNfhG_yvIWbVa7GnqVVs" version="14.3.2" type="github">
  <diagram id="6a731a19-8d31-9384-78a2-239565b7b9f0" name="Page-1">
    <mxGraphModel dx="1261" dy="752" grid="1" gridSize="10" guides="1" tooltips="1" connect="1" arrows="1" fold="1" page="1" pageScale="1" pageWidth="2336" pageHeight="1654" background="none" math="0" shadow="0">
      <root>
        <mxCell id="0" />
        <mxCell id="1" parent="0" />
        <mxCell id="3wPFejk1XR7l_yjAUoGq-90" value="" style="edgeStyle=orthogonalEdgeStyle;rounded=0;orthogonalLoop=1;jettySize=auto;html=1;fontSize=12;" edge="1" parent="1" source="3wPFejk1XR7l_yjAUoGq-55" target="3wPFejk1XR7l_yjAUoGq-57">
          <mxGeometry relative="1" as="geometry" />
        </mxCell>
        <mxCell id="3wPFejk1XR7l_yjAUoGq-55" value="START" style="rounded=1;whiteSpace=wrap;html=1;" vertex="1" parent="1">
          <mxGeometry x="90" y="220" width="120" height="60" as="geometry" />
        </mxCell>
        <mxCell id="3wPFejk1XR7l_yjAUoGq-108" value="" style="edgeStyle=orthogonalEdgeStyle;rounded=0;orthogonalLoop=1;jettySize=auto;html=1;fontSize=10;" edge="1" parent="1" source="3wPFejk1XR7l_yjAUoGq-57" target="3wPFejk1XR7l_yjAUoGq-59">
          <mxGeometry relative="1" as="geometry" />
        </mxCell>
        <mxCell id="3wPFejk1XR7l_yjAUoGq-57" value="CSV파일 Open" style="rounded=0;whiteSpace=wrap;html=1;" vertex="1" parent="1">
          <mxGeometry x="260" y="220" width="120" height="60" as="geometry" />
        </mxCell>
        <mxCell id="3wPFejk1XR7l_yjAUoGq-109" value="" style="edgeStyle=orthogonalEdgeStyle;rounded=0;orthogonalLoop=1;jettySize=auto;html=1;fontSize=10;" edge="1" parent="1" source="3wPFejk1XR7l_yjAUoGq-59" target="3wPFejk1XR7l_yjAUoGq-107">
          <mxGeometry relative="1" as="geometry" />
        </mxCell>
        <mxCell id="3wPFejk1XR7l_yjAUoGq-59" value="데이터 파싱" style="rounded=0;whiteSpace=wrap;html=1;" vertex="1" parent="1">
          <mxGeometry x="430" y="220" width="120" height="60" as="geometry" />
        </mxCell>
        <mxCell id="3wPFejk1XR7l_yjAUoGq-71" value="" style="edgeStyle=orthogonalEdgeStyle;rounded=0;orthogonalLoop=1;jettySize=auto;html=1;" edge="1" parent="1" source="3wPFejk1XR7l_yjAUoGq-61" target="3wPFejk1XR7l_yjAUoGq-70">
          <mxGeometry relative="1" as="geometry" />
        </mxCell>
        <mxCell id="3wPFejk1XR7l_yjAUoGq-61" value="통신판매사업자" style="shape=cylinder3;whiteSpace=wrap;html=1;boundedLbl=1;backgroundOutline=1;size=15;fillColor=#dae8fc;strokeColor=#6c8ebf;" vertex="1" parent="1">
          <mxGeometry x="970" y="210" width="100" height="80" as="geometry" />
        </mxCell>
        <mxCell id="3wPFejk1XR7l_yjAUoGq-69" value="" style="edgeStyle=orthogonalEdgeStyle;rounded=0;orthogonalLoop=1;jettySize=auto;html=1;entryX=0;entryY=0.5;entryDx=0;entryDy=0;entryPerimeter=0;" edge="1" parent="1" source="3wPFejk1XR7l_yjAUoGq-67" target="3wPFejk1XR7l_yjAUoGq-61">
          <mxGeometry relative="1" as="geometry" />
        </mxCell>
        <mxCell id="3wPFejk1XR7l_yjAUoGq-67" value="사업자번호" style="shape=parallelogram;perimeter=parallelogramPerimeter;whiteSpace=wrap;html=1;fixedSize=1;" vertex="1" parent="1">
          <mxGeometry x="790" y="220" width="120" height="60" as="geometry" />
        </mxCell>
        <mxCell id="3wPFejk1XR7l_yjAUoGq-83" value="N" style="edgeStyle=orthogonalEdgeStyle;rounded=0;orthogonalLoop=1;jettySize=auto;html=1;" edge="1" parent="1" source="3wPFejk1XR7l_yjAUoGq-70">
          <mxGeometry relative="1" as="geometry">
            <mxPoint x="1175" y="340" as="targetPoint" />
          </mxGeometry>
        </mxCell>
        <mxCell id="3wPFejk1XR7l_yjAUoGq-112" value="" style="edgeStyle=orthogonalEdgeStyle;rounded=0;orthogonalLoop=1;jettySize=auto;html=1;fontSize=11;entryX=0;entryY=0.5;entryDx=0;entryDy=0;" edge="1" parent="1" source="3wPFejk1XR7l_yjAUoGq-70" target="3wPFejk1XR7l_yjAUoGq-149">
          <mxGeometry relative="1" as="geometry">
            <mxPoint x="1390" y="250" as="targetPoint" />
          </mxGeometry>
        </mxCell>
        <mxCell id="3wPFejk1XR7l_yjAUoGq-138" value="Y" style="edgeLabel;html=1;align=center;verticalAlign=middle;resizable=0;points=[];fontSize=11;" vertex="1" connectable="0" parent="3wPFejk1XR7l_yjAUoGq-112">
          <mxGeometry x="-0.7579" y="-1" relative="1" as="geometry">
            <mxPoint as="offset" />
          </mxGeometry>
        </mxCell>
        <mxCell id="3wPFejk1XR7l_yjAUoGq-70" value="Data Found" style="rhombus;whiteSpace=wrap;html=1;" vertex="1" parent="1">
          <mxGeometry x="1130" y="210" width="90" height="80" as="geometry" />
        </mxCell>
        <mxCell id="3wPFejk1XR7l_yjAUoGq-80" value="" style="edgeStyle=orthogonalEdgeStyle;rounded=0;orthogonalLoop=1;jettySize=auto;html=1;" edge="1" parent="1" target="3wPFejk1XR7l_yjAUoGq-79">
          <mxGeometry relative="1" as="geometry">
            <mxPoint x="1175" y="530" as="sourcePoint" />
          </mxGeometry>
        </mxCell>
        <mxCell id="3wPFejk1XR7l_yjAUoGq-93" value="Y" style="edgeStyle=orthogonalEdgeStyle;rounded=0;orthogonalLoop=1;jettySize=auto;html=1;fontSize=12;" edge="1" parent="1" source="3wPFejk1XR7l_yjAUoGq-79">
          <mxGeometry relative="1" as="geometry">
            <mxPoint x="1175" y="710" as="targetPoint" />
          </mxGeometry>
        </mxCell>
        <mxCell id="3wPFejk1XR7l_yjAUoGq-79" value="Insert Success" style="rhombus;whiteSpace=wrap;html=1;" vertex="1" parent="1">
          <mxGeometry x="1130" y="580" width="90" height="80" as="geometry" />
        </mxCell>
        <mxCell id="3wPFejk1XR7l_yjAUoGq-97" value="" style="edgeStyle=orthogonalEdgeStyle;rounded=0;orthogonalLoop=1;jettySize=auto;html=1;fontSize=12;" edge="1" parent="1" source="3wPFejk1XR7l_yjAUoGq-91" target="3wPFejk1XR7l_yjAUoGq-96">
          <mxGeometry relative="1" as="geometry" />
        </mxCell>
        <mxCell id="3wPFejk1XR7l_yjAUoGq-91" value="통신판매사업장" style="shape=cylinder3;whiteSpace=wrap;html=1;boundedLbl=1;backgroundOutline=1;size=15;fillColor=#f8cecc;strokeColor=#b85450;" vertex="1" parent="1">
          <mxGeometry x="1125" y="1070" width="100" height="80" as="geometry" />
        </mxCell>
        <mxCell id="3wPFejk1XR7l_yjAUoGq-94" value="" style="edgeStyle=orthogonalEdgeStyle;rounded=0;orthogonalLoop=1;jettySize=auto;html=1;fontSize=12;" edge="1" parent="1" source="3wPFejk1XR7l_yjAUoGq-92" target="3wPFejk1XR7l_yjAUoGq-91">
          <mxGeometry relative="1" as="geometry" />
        </mxCell>
        <mxCell id="3wPFejk1XR7l_yjAUoGq-92" value="&lt;font style=&quot;font-size: 9px&quot;&gt;사업자번호, &lt;br&gt;통신판매번호, 상호,&lt;br&gt;사업장소재지, 도로명,&lt;br&gt;업소상태, 판매방식,&lt;br&gt;취급품목, 인터넷도메인,&lt;br&gt;호스트서버소재지, 신고일자,&lt;br&gt;신고기관구분코드&lt;br&gt;&lt;/font&gt;" style="shape=parallelogram;perimeter=parallelogramPerimeter;whiteSpace=wrap;html=1;fixedSize=1;fontSize=9;" vertex="1" parent="1">
          <mxGeometry x="1105" y="950" width="140" height="80" as="geometry" />
        </mxCell>
        <mxCell id="3wPFejk1XR7l_yjAUoGq-118" value="N" style="edgeStyle=orthogonalEdgeStyle;rounded=0;orthogonalLoop=1;jettySize=auto;html=1;fontSize=11;" edge="1" parent="1" source="3wPFejk1XR7l_yjAUoGq-96" target="3wPFejk1XR7l_yjAUoGq-117">
          <mxGeometry relative="1" as="geometry" />
        </mxCell>
        <mxCell id="3wPFejk1XR7l_yjAUoGq-96" value="Insert Success" style="rhombus;whiteSpace=wrap;html=1;" vertex="1" parent="1">
          <mxGeometry x="1130" y="1200" width="90" height="80" as="geometry" />
        </mxCell>
        <mxCell id="3wPFejk1XR7l_yjAUoGq-125" value="" style="edgeStyle=orthogonalEdgeStyle;rounded=0;orthogonalLoop=1;jettySize=auto;html=1;fontSize=11;" edge="1" parent="1" source="3wPFejk1XR7l_yjAUoGq-98">
          <mxGeometry relative="1" as="geometry">
            <mxPoint x="1740" y="1240" as="targetPoint" />
          </mxGeometry>
        </mxCell>
        <mxCell id="3wPFejk1XR7l_yjAUoGq-98" value="Commit" style="ellipse;whiteSpace=wrap;html=1;fontSize=12;" vertex="1" parent="1">
          <mxGeometry x="1600" y="1210" width="95" height="60" as="geometry" />
        </mxCell>
        <mxCell id="3wPFejk1XR7l_yjAUoGq-105" value="" style="edgeStyle=orthogonalEdgeStyle;rounded=0;orthogonalLoop=1;jettySize=auto;html=1;fontSize=10;" edge="1" parent="1" source="3wPFejk1XR7l_yjAUoGq-102" target="3wPFejk1XR7l_yjAUoGq-104">
          <mxGeometry relative="1" as="geometry" />
        </mxCell>
        <mxCell id="3wPFejk1XR7l_yjAUoGq-106" value="Y" style="edgeLabel;html=1;align=center;verticalAlign=middle;resizable=0;points=[];fontSize=10;" vertex="1" connectable="0" parent="3wPFejk1XR7l_yjAUoGq-105">
          <mxGeometry x="-0.4417" relative="1" as="geometry">
            <mxPoint as="offset" />
          </mxGeometry>
        </mxCell>
        <mxCell id="3wPFejk1XR7l_yjAUoGq-102" value="전체 처리건수 == 파일데이터건수" style="rhombus;whiteSpace=wrap;html=1;fontSize=10;" vertex="1" parent="1">
          <mxGeometry x="1740" y="1200" width="140" height="80" as="geometry" />
        </mxCell>
        <mxCell id="3wPFejk1XR7l_yjAUoGq-104" value="END" style="rounded=1;whiteSpace=wrap;html=1;" vertex="1" parent="1">
          <mxGeometry x="1930" y="1210" width="120" height="60" as="geometry" />
        </mxCell>
        <mxCell id="3wPFejk1XR7l_yjAUoGq-157" value="" style="edgeStyle=orthogonalEdgeStyle;rounded=0;orthogonalLoop=1;jettySize=auto;html=1;fontSize=11;" edge="1" parent="1" source="3wPFejk1XR7l_yjAUoGq-107" target="3wPFejk1XR7l_yjAUoGq-67">
          <mxGeometry relative="1" as="geometry" />
        </mxCell>
        <mxCell id="3wPFejk1XR7l_yjAUoGq-107" value="전체 처리건수++" style="rounded=0;whiteSpace=wrap;html=1;" vertex="1" parent="1">
          <mxGeometry x="600" y="220" width="120" height="60" as="geometry" />
        </mxCell>
        <mxCell id="3wPFejk1XR7l_yjAUoGq-114" value="" style="edgeStyle=orthogonalEdgeStyle;rounded=0;orthogonalLoop=1;jettySize=auto;html=1;fontSize=10;" edge="1" parent="1" source="3wPFejk1XR7l_yjAUoGq-111" target="3wPFejk1XR7l_yjAUoGq-113">
          <mxGeometry relative="1" as="geometry" />
        </mxCell>
        <mxCell id="3wPFejk1XR7l_yjAUoGq-111" value="통신판매사업자" style="shape=cylinder3;whiteSpace=wrap;html=1;boundedLbl=1;backgroundOutline=1;size=15;fillColor=#d5e8d4;strokeColor=#82b366;" vertex="1" parent="1">
          <mxGeometry x="1600" y="380" width="100" height="80" as="geometry" />
        </mxCell>
        <mxCell id="3wPFejk1XR7l_yjAUoGq-113" value="통신판매사업장" style="shape=cylinder3;whiteSpace=wrap;html=1;boundedLbl=1;backgroundOutline=1;size=15;fillColor=#d5e8d4;strokeColor=#82b366;" vertex="1" parent="1">
          <mxGeometry x="1600" y="520" width="100" height="80" as="geometry" />
        </mxCell>
        <mxCell id="3wPFejk1XR7l_yjAUoGq-115" value="" style="endArrow=classic;html=1;fontSize=10;exitX=0;exitY=0.5;exitDx=0;exitDy=0;exitPerimeter=0;rounded=0;" edge="1" parent="1" source="3wPFejk1XR7l_yjAUoGq-152" target="3wPFejk1XR7l_yjAUoGq-158">
          <mxGeometry width="50" height="50" relative="1" as="geometry">
            <mxPoint x="1380" y="490" as="sourcePoint" />
            <mxPoint x="1500" y="830" as="targetPoint" />
            <Array as="points">
              <mxPoint x="1320" y="720" />
            </Array>
          </mxGeometry>
        </mxCell>
        <mxCell id="3wPFejk1XR7l_yjAUoGq-117" value="에러파일 생성" style="rounded=0;whiteSpace=wrap;html=1;fontSize=11;" vertex="1" parent="1">
          <mxGeometry x="940" y="1210" width="120" height="60" as="geometry" />
        </mxCell>
        <mxCell id="3wPFejk1XR7l_yjAUoGq-119" value="N" style="endArrow=classic;html=1;fontSize=11;exitX=0;exitY=0.5;exitDx=0;exitDy=0;entryX=0.5;entryY=0;entryDx=0;entryDy=0;rounded=0;" edge="1" parent="1" source="3wPFejk1XR7l_yjAUoGq-79" target="3wPFejk1XR7l_yjAUoGq-117">
          <mxGeometry width="50" height="50" relative="1" as="geometry">
            <mxPoint x="1120" y="860" as="sourcePoint" />
            <mxPoint x="990" y="990" as="targetPoint" />
            <Array as="points">
              <mxPoint x="1000" y="620" />
            </Array>
          </mxGeometry>
        </mxCell>
        <mxCell id="3wPFejk1XR7l_yjAUoGq-120" value="" style="endArrow=classic;html=1;fontSize=11;exitX=0.5;exitY=1;exitDx=0;exitDy=0;entryX=0.5;entryY=1;entryDx=0;entryDy=0;rounded=0;" edge="1" parent="1" source="3wPFejk1XR7l_yjAUoGq-117" target="3wPFejk1XR7l_yjAUoGq-104">
          <mxGeometry width="50" height="50" relative="1" as="geometry">
            <mxPoint x="1250" y="1180" as="sourcePoint" />
            <mxPoint x="1300" y="1130" as="targetPoint" />
            <Array as="points">
              <mxPoint x="1000" y="1320" />
              <mxPoint x="1990" y="1320" />
            </Array>
          </mxGeometry>
        </mxCell>
        <mxCell id="3wPFejk1XR7l_yjAUoGq-121" value="SELECT" style="shape=cylinder3;whiteSpace=wrap;html=1;boundedLbl=1;backgroundOutline=1;size=15;fillColor=#dae8fc;strokeColor=#6c8ebf;" vertex="1" parent="1">
          <mxGeometry x="1870" y="180" width="72" height="50" as="geometry" />
        </mxCell>
        <mxCell id="3wPFejk1XR7l_yjAUoGq-122" value="UPDATE" style="shape=cylinder3;whiteSpace=wrap;html=1;boundedLbl=1;backgroundOutline=1;size=15;fillColor=#d5e8d4;strokeColor=#82b366;" vertex="1" parent="1">
          <mxGeometry x="1870" y="240" width="72" height="50" as="geometry" />
        </mxCell>
        <mxCell id="3wPFejk1XR7l_yjAUoGq-123" value="INSERT" style="shape=cylinder3;whiteSpace=wrap;html=1;boundedLbl=1;backgroundOutline=1;size=15;fillColor=#f8cecc;strokeColor=#b85450;" vertex="1" parent="1">
          <mxGeometry x="1870" y="300" width="72" height="50" as="geometry" />
        </mxCell>
        <mxCell id="3wPFejk1XR7l_yjAUoGq-127" value="" style="endArrow=classic;html=1;fontSize=11;exitX=0.5;exitY=0;exitDx=0;exitDy=0;rounded=0;entryX=0.5;entryY=0;entryDx=0;entryDy=0;" edge="1" parent="1" source="3wPFejk1XR7l_yjAUoGq-102" target="3wPFejk1XR7l_yjAUoGq-107">
          <mxGeometry width="50" height="50" relative="1" as="geometry">
            <mxPoint x="1540" y="1120" as="sourcePoint" />
            <mxPoint x="830" y="90" as="targetPoint" />
            <Array as="points">
              <mxPoint x="1810" y="170" />
              <mxPoint x="660" y="170" />
            </Array>
          </mxGeometry>
        </mxCell>
        <mxCell id="3wPFejk1XR7l_yjAUoGq-130" value="N" style="edgeLabel;html=1;align=center;verticalAlign=middle;resizable=0;points=[];fontSize=11;" vertex="1" connectable="0" parent="3wPFejk1XR7l_yjAUoGq-127">
          <mxGeometry x="-0.9552" y="-1" relative="1" as="geometry">
            <mxPoint as="offset" />
          </mxGeometry>
        </mxCell>
        <mxCell id="3wPFejk1XR7l_yjAUoGq-133" value="" style="edgeStyle=orthogonalEdgeStyle;rounded=0;orthogonalLoop=1;jettySize=auto;html=1;fontSize=11;" edge="1" parent="1" source="3wPFejk1XR7l_yjAUoGq-131" target="3wPFejk1XR7l_yjAUoGq-98">
          <mxGeometry relative="1" as="geometry" />
        </mxCell>
        <mxCell id="3wPFejk1XR7l_yjAUoGq-134" value="Y" style="edgeLabel;html=1;align=center;verticalAlign=middle;resizable=0;points=[];fontSize=10;" vertex="1" connectable="0" parent="3wPFejk1XR7l_yjAUoGq-133">
          <mxGeometry x="-0.2" relative="1" as="geometry">
            <mxPoint as="offset" />
          </mxGeometry>
        </mxCell>
        <mxCell id="3wPFejk1XR7l_yjAUoGq-131" value="적재건수%100 == 0&lt;br&gt;or&lt;br&gt;전체처리건수 == 파일데이터건수" style="rhombus;whiteSpace=wrap;html=1;fontSize=10;" vertex="1" parent="1">
          <mxGeometry x="1410" y="1200" width="140" height="80" as="geometry" />
        </mxCell>
        <mxCell id="3wPFejk1XR7l_yjAUoGq-136" value="" style="endArrow=none;html=1;fontSize=10;exitX=0.5;exitY=0;exitDx=0;exitDy=0;" edge="1" parent="1" source="3wPFejk1XR7l_yjAUoGq-131">
          <mxGeometry width="50" height="50" relative="1" as="geometry">
            <mxPoint x="1510" y="290" as="sourcePoint" />
            <mxPoint x="1490" y="170" as="targetPoint" />
          </mxGeometry>
        </mxCell>
        <mxCell id="3wPFejk1XR7l_yjAUoGq-140" value="N" style="edgeLabel;html=1;align=center;verticalAlign=middle;resizable=0;points=[];fontSize=11;" vertex="1" connectable="0" parent="3wPFejk1XR7l_yjAUoGq-136">
          <mxGeometry x="-0.9658" y="-1" relative="1" as="geometry">
            <mxPoint as="offset" />
          </mxGeometry>
        </mxCell>
        <mxCell id="3wPFejk1XR7l_yjAUoGq-142" value="" style="edgeStyle=orthogonalEdgeStyle;rounded=0;orthogonalLoop=1;jettySize=auto;html=1;fontSize=12;" edge="1" parent="1" source="3wPFejk1XR7l_yjAUoGq-143" target="3wPFejk1XR7l_yjAUoGq-145">
          <mxGeometry relative="1" as="geometry" />
        </mxCell>
        <mxCell id="3wPFejk1XR7l_yjAUoGq-143" value="신고기관명" style="shape=parallelogram;perimeter=parallelogramPerimeter;whiteSpace=wrap;html=1;fixedSize=1;fontSize=12;" vertex="1" parent="1">
          <mxGeometry x="1115" y="710" width="120" height="60" as="geometry" />
        </mxCell>
        <mxCell id="3wPFejk1XR7l_yjAUoGq-144" value="" style="edgeStyle=orthogonalEdgeStyle;rounded=0;orthogonalLoop=1;jettySize=auto;html=1;fontSize=12;" edge="1" parent="1" source="3wPFejk1XR7l_yjAUoGq-145">
          <mxGeometry relative="1" as="geometry">
            <mxPoint x="1175" y="950" as="targetPoint" />
          </mxGeometry>
        </mxCell>
        <mxCell id="3wPFejk1XR7l_yjAUoGq-145" value="신고기관" style="shape=cylinder3;whiteSpace=wrap;html=1;boundedLbl=1;backgroundOutline=1;size=15;fillColor=#dae8fc;strokeColor=#6c8ebf;" vertex="1" parent="1">
          <mxGeometry x="1125" y="820" width="100" height="80" as="geometry" />
        </mxCell>
        <mxCell id="3wPFejk1XR7l_yjAUoGq-146" value="통신판매사업자" style="shape=cylinder3;whiteSpace=wrap;html=1;boundedLbl=1;backgroundOutline=1;size=15;fillColor=#f8cecc;strokeColor=#b85450;" vertex="1" parent="1">
          <mxGeometry x="1125" y="450" width="100" height="80" as="geometry" />
        </mxCell>
        <mxCell id="3wPFejk1XR7l_yjAUoGq-147" value="" style="edgeStyle=orthogonalEdgeStyle;rounded=0;orthogonalLoop=1;jettySize=auto;html=1;fontSize=12;" edge="1" parent="1" source="3wPFejk1XR7l_yjAUoGq-148" target="3wPFejk1XR7l_yjAUoGq-146">
          <mxGeometry relative="1" as="geometry" />
        </mxCell>
        <mxCell id="3wPFejk1XR7l_yjAUoGq-148" value="&lt;font style=&quot;font-size: 9px&quot;&gt;사업자번호, &lt;br&gt;개인법인구분, &lt;br style=&quot;font-size: 9px&quot;&gt;대표자명, 전화번호, &lt;br&gt;전자우편&lt;/font&gt;" style="shape=parallelogram;perimeter=parallelogramPerimeter;whiteSpace=wrap;html=1;fixedSize=1;fontSize=9;" vertex="1" parent="1">
          <mxGeometry x="1115" y="340" width="120" height="60" as="geometry" />
        </mxCell>
        <mxCell id="3wPFejk1XR7l_yjAUoGq-150" value="" style="edgeStyle=orthogonalEdgeStyle;rounded=0;orthogonalLoop=1;jettySize=auto;html=1;fontSize=11;" edge="1" parent="1" source="3wPFejk1XR7l_yjAUoGq-149" target="3wPFejk1XR7l_yjAUoGq-111">
          <mxGeometry relative="1" as="geometry" />
        </mxCell>
        <mxCell id="3wPFejk1XR7l_yjAUoGq-151" value="N" style="edgeLabel;html=1;align=center;verticalAlign=middle;resizable=0;points=[];fontSize=11;" vertex="1" connectable="0" parent="3wPFejk1XR7l_yjAUoGq-150">
          <mxGeometry x="-0.125" y="1" relative="1" as="geometry">
            <mxPoint as="offset" />
          </mxGeometry>
        </mxCell>
        <mxCell id="3wPFejk1XR7l_yjAUoGq-149" value="통신판매사업자.신고일자&lt;br&gt;==&lt;br&gt;신고일자" style="rhombus;whiteSpace=wrap;html=1;fontSize=11;" vertex="1" parent="1">
          <mxGeometry x="1560" y="200" width="180" height="100" as="geometry" />
        </mxCell>
        <mxCell id="3wPFejk1XR7l_yjAUoGq-152" value="변경내역" style="shape=cylinder3;whiteSpace=wrap;html=1;boundedLbl=1;backgroundOutline=1;size=15;fillColor=#f8cecc;strokeColor=#b85450;" vertex="1" parent="1">
          <mxGeometry x="1600" y="680" width="100" height="80" as="geometry" />
        </mxCell>
        <mxCell id="3wPFejk1XR7l_yjAUoGq-153" value="" style="endArrow=classic;html=1;fontSize=10;exitX=0.5;exitY=1;exitDx=0;exitDy=0;exitPerimeter=0;" edge="1" parent="1" source="3wPFejk1XR7l_yjAUoGq-113" target="3wPFejk1XR7l_yjAUoGq-152">
          <mxGeometry width="50" height="50" relative="1" as="geometry">
            <mxPoint x="1650" y="600" as="sourcePoint" />
            <mxPoint x="1647.5937498177148" y="1210.000058331294" as="targetPoint" />
          </mxGeometry>
        </mxCell>
        <mxCell id="3wPFejk1XR7l_yjAUoGq-155" value="" style="endArrow=none;html=1;fontSize=11;" edge="1" parent="1">
          <mxGeometry width="50" height="50" relative="1" as="geometry">
            <mxPoint x="1740" y="250" as="sourcePoint" />
            <mxPoint x="1810" y="250" as="targetPoint" />
          </mxGeometry>
        </mxCell>
        <mxCell id="3wPFejk1XR7l_yjAUoGq-156" value="Y" style="edgeLabel;html=1;align=center;verticalAlign=middle;resizable=0;points=[];fontSize=11;" vertex="1" connectable="0" parent="3wPFejk1XR7l_yjAUoGq-155">
          <mxGeometry x="-0.2" y="-1" relative="1" as="geometry">
            <mxPoint as="offset" />
          </mxGeometry>
        </mxCell>
        <mxCell id="3wPFejk1XR7l_yjAUoGq-161" value="" style="edgeStyle=orthogonalEdgeStyle;rounded=0;orthogonalLoop=1;jettySize=auto;html=1;fontSize=11;" edge="1" parent="1" source="3wPFejk1XR7l_yjAUoGq-158" target="3wPFejk1XR7l_yjAUoGq-131">
          <mxGeometry relative="1" as="geometry" />
        </mxCell>
        <mxCell id="3wPFejk1XR7l_yjAUoGq-158" value="적재건수++" style="rounded=0;whiteSpace=wrap;html=1;fontSize=11;" vertex="1" parent="1">
          <mxGeometry x="1260" y="1210" width="120" height="60" as="geometry" />
        </mxCell>
        <mxCell id="3wPFejk1XR7l_yjAUoGq-159" value="" style="edgeStyle=orthogonalEdgeStyle;rounded=0;orthogonalLoop=1;jettySize=auto;html=1;fontSize=11;" edge="1" parent="1" source="3wPFejk1XR7l_yjAUoGq-96" target="3wPFejk1XR7l_yjAUoGq-158">
          <mxGeometry relative="1" as="geometry">
            <mxPoint x="1220" y="1240" as="sourcePoint" />
            <mxPoint x="1390" y="1240" as="targetPoint" />
          </mxGeometry>
        </mxCell>
        <mxCell id="3wPFejk1XR7l_yjAUoGq-160" value="Y" style="edgeLabel;html=1;align=center;verticalAlign=middle;resizable=0;points=[];fontSize=11;" vertex="1" connectable="0" parent="3wPFejk1XR7l_yjAUoGq-159">
          <mxGeometry x="-0.48" y="-1" relative="1" as="geometry">
            <mxPoint as="offset" />
          </mxGeometry>
        </mxCell>
      </root>
    </mxGraphModel>
  </diagram>
</mxfile>
